<svg width="74" height="26" viewBox="0 0 74 26" fill="none" xmlns="http://www.w3.org/2000/svg">
<g id="Group">
<g id="Group_2">
<g id="Group_3">
<path id="Vector" d="M20.8828 5.84758C18.571 5.84758 16.514 6.9383 15.1972 8.63225L17.3558 11.5218C17.946 10.1583 19.303 9.20451 20.8834 9.20451C23.005 9.20451 24.7251 10.9245 24.7251 13.0462C24.7251 15.1678 23.005 16.8879 20.8834 16.8879C19.6584 16.8879 18.5677 16.3145 17.8639 15.4216L12.8734 8.66757C11.5577 6.95297 9.48765 5.84704 7.15948 5.84704C5.74813 5.84704 4.43134 6.25354 3.31997 6.95569V0H0V20.2481H3.31997V19.1362C4.43134 19.8383 5.74759 20.2448 7.15948 20.2448C10.2197 20.2448 12.8337 18.3351 13.875 15.6423C13.875 15.6423 15.0162 17.227 15.4216 17.7357C16.6846 19.3193 18.6987 20.2448 20.8828 20.2448C24.8582 20.2448 28.0814 17.0221 28.0814 13.0462C28.0814 9.07082 24.8587 5.84758 20.8828 5.84758ZM7.15948 16.8879C5.03783 16.8879 3.3178 15.1678 3.3178 13.0462C3.3178 10.9245 5.03783 9.20451 7.15948 9.20451C9.28113 9.20451 11.0012 10.9245 11.0012 13.0462C11.0012 15.1678 9.28113 16.8879 7.15948 16.8879ZM39.532 6.5557C38.712 6.10355 37.7729 5.87747 36.7142 5.87747C35.6914 5.87747 34.7964 6.0992 34.029 6.54266C33.4366 6.88504 32.9747 7.35078 32.6399 7.93663V6.30354H29.3596V20.2361H32.8519V12.0615C32.8519 11.4354 32.9753 10.8963 33.2225 10.4436C33.4693 9.99143 33.8133 9.64362 34.2545 9.39961C34.6953 9.15614 35.198 9.0344 35.7626 9.0344C36.3273 9.0344 36.8294 9.15668 37.2707 9.39961C37.7115 9.64362 38.0555 9.99143 38.3027 10.4436C38.5495 10.8963 38.6728 11.4354 38.6728 12.0615V20.2356H42.1385V11.2522C42.1385 10.1914 41.9091 9.25613 41.4504 8.44693C40.9912 7.63881 40.3521 7.0084 39.532 6.5557ZM69.896 6.30191L66.2532 15.8347L62.7463 6.30191H59.078L64.5207 20.2312L64.2 20.9796C63.9223 21.5692 63.606 22.0464 63.2506 22.4105C62.8947 22.7746 62.3273 22.9566 61.5463 22.9566C61.2686 22.9566 60.9697 22.9306 60.6491 22.8784C60.3279 22.8262 60.0546 22.7746 59.8296 22.7224V25.5843C60.1241 25.7228 60.454 25.8266 60.8181 25.8962C61.1822 25.9652 61.555 26 61.9371 26C62.8213 26 63.606 25.8266 64.2919 25.4794C64.9766 25.1321 65.5799 24.6381 66.1 23.9963C66.62 23.3545 67.0624 22.5735 67.4265 21.6545L73.5909 6.30028H69.896V6.30191ZM54.4265 6.95623C53.3152 6.25409 51.9989 5.84758 50.587 5.84758C46.6116 5.84758 43.3884 9.07027 43.3884 13.0462C43.3884 17.0221 46.6111 20.2448 50.587 20.2448C51.9989 20.2448 53.3152 19.8383 54.4265 19.1362V20.2481H57.7465V0H54.4265V6.95623ZM50.587 16.8879C48.4654 16.8879 46.7453 15.1678 46.7453 13.0462C46.7453 10.9245 48.4654 9.20451 50.587 9.20451C52.7087 9.20451 54.4287 10.9245 54.4287 13.0462C54.4287 15.1678 52.7092 16.8879 50.587 16.8879Z" fill="#fff"/>
</g>
</g>
</g>
</svg>
